<svg width="21" height="19" viewBox="0 0 21 19" fill="none" xmlns="http://www.w3.org/2000/svg">
<path d="M20.1921 3.46302C20.1353 3.32596 20.0392 3.20881 19.9159 3.12637C19.7926 3.04394 19.6476 2.99992 19.4993 2.99989H16.6465C16.2476 2.32131 15.6799 1.75747 14.9987 1.36321C14.3174 0.96894 13.5457 0.757653 12.7586 0.74989C12.1723 0.742199 11.5902 0.851865 11.0469 1.07244C10.5035 1.29301 10.0097 1.62003 9.59458 2.03427C9.16733 2.45354 8.82823 2.954 8.59719 3.50622C8.36616 4.05845 8.24787 4.65129 8.24927 5.24989V5.82083C4.47489 4.8252 1.3877 1.75489 1.35489 1.72208C1.25427 1.62057 1.12674 1.54992 0.987315 1.51846C0.84789 1.487 0.702378 1.49603 0.567915 1.5445C0.433453 1.59296 0.315639 1.67884 0.228347 1.79202C0.141056 1.9052 0.087923 2.04096 0.0752046 2.18333C-0.328858 6.66364 0.972392 9.66177 2.1377 11.3877C2.7059 12.2409 3.39713 13.0054 4.18895 13.6565C2.76114 15.2999 0.513017 16.1633 0.488642 16.1727C0.382811 16.2123 0.287306 16.2754 0.209263 16.3571C0.13122 16.4389 0.0726568 16.5372 0.0379491 16.6447C0.00324146 16.7523 -0.006713 16.8663 0.00882926 16.9782C0.0243715 17.0901 0.0650086 17.1971 0.127704 17.2911C0.198017 17.3961 0.479267 17.7646 1.16645 18.1086C2.01583 18.5343 3.13802 18.7499 4.49927 18.7499C11.1246 18.7499 16.6605 13.648 17.2258 7.08364L20.0299 4.28052C20.1347 4.17557 20.2061 4.04188 20.235 3.89637C20.2639 3.75085 20.2489 3.60004 20.1921 3.46302ZM15.9733 6.2202C15.8447 6.3491 15.7674 6.52038 15.7558 6.70208C15.3743 12.6168 10.4318 17.2499 4.49927 17.2499C3.50927 17.2499 2.81177 17.1186 2.32239 16.9611C3.40145 16.3752 4.90614 15.3674 5.87364 13.9161C5.93043 13.8308 5.96912 13.7347 5.98732 13.6339C6.00553 13.533 6.00287 13.4295 5.9795 13.3297C5.95613 13.2299 5.91255 13.1359 5.85145 13.0536C5.79035 12.9713 5.71303 12.9024 5.62427 12.8511C5.5802 12.8258 1.5077 10.3818 1.49927 3.85114C2.99927 5.06989 5.74145 6.96083 8.87458 7.4877C8.98196 7.50581 9.09199 7.50031 9.19703 7.4716C9.30208 7.44288 9.39961 7.39164 9.48284 7.32143C9.56608 7.25121 9.63303 7.16372 9.67904 7.06502C9.72505 6.96632 9.74901 6.85879 9.74927 6.74989V5.24989C9.74842 4.84981 9.82761 4.45361 9.98218 4.08459C10.1367 3.71557 10.3636 3.3812 10.6493 3.10114C10.9232 2.82673 11.2493 2.61002 11.6084 2.46381C11.9675 2.3176 12.3522 2.24486 12.7399 2.24989C13.9268 2.26489 15.0358 2.98864 15.4999 4.05083C15.5584 4.18437 15.6545 4.29797 15.7766 4.37772C15.8986 4.45748 16.0413 4.49993 16.1871 4.49989H17.6871L15.9733 6.2202Z" fill="black"/>
</svg>
