<svg width="57" height="57" viewBox="0 0 57 57" fill="none" xmlns="http://www.w3.org/2000/svg">
<path d="M57 28.5C57 44.2401 44.2401 57 28.5 57C12.7599 57 0 44.2401 0 28.5C0 12.7599 12.7599 0 28.5 0C44.2401 0 57 12.7599 57 28.5Z" fill="url(#paint0_linear_71_2150)" fill-opacity="0.76"/>
<path d="M36.075 16.25C35.7917 16.25 35.3667 16.3917 35.0833 16.675L32.5333 19.225L37.775 24.6083L40.325 21.9167C40.8917 21.35 40.8917 20.5 40.325 19.9333L37.0667 16.675C36.7833 16.3917 36.3583 16.25 36.075 16.25ZM30.975 20.7833L15.25 36.3667V41.75H20.6333L36.2167 26.025L30.975 20.7833ZM19.3583 38.9167H18.0833V37.6417L30.975 24.75L32.25 26.025L19.3583 38.9167ZM16.525 15.5417L19.5 18.5167L22.475 15.5417L24.4583 17.525L21.4833 20.5L24.4583 23.475L22.475 25.4583L19.5 22.4833L16.525 25.4583L14.5417 23.475L17.5167 20.5L14.5417 17.525L16.525 15.5417Z" fill="white"/>
<defs>
<linearGradient id="paint0_linear_71_2150" x1="57" y1="45" x2="-173.5" y2="-245" gradientUnits="userSpaceOnUse">
<stop stop-color="#FF5722" stop-opacity="0.68"/>
<stop offset="1" stop-color="#FF5722" stop-opacity="0.76"/>
</linearGradient>
</defs>
</svg>
