<svg width="24" height="25" viewBox="0 0 24 25" fill="none" xmlns="http://www.w3.org/2000/svg">
<path d="M11.756 7.25C13.0379 7.25 14.2673 7.75922 15.1737 8.66565C16.0802 9.57208 16.5894 10.8015 16.5894 12.0833C16.5894 13.3652 16.0802 14.5946 15.1737 15.501C14.2673 16.4074 13.0379 16.9167 11.756 16.9167C10.4742 16.9167 9.24479 16.4074 8.33836 15.501C7.43194 14.5946 6.92271 13.3652 6.92271 12.0833C6.92271 10.8015 7.43194 9.57208 8.33836 8.66565C9.24479 7.75922 10.4742 7.25 11.756 7.25ZM11.756 9.66667C11.1151 9.66667 10.5004 9.92128 10.0472 10.3745C9.59399 10.8277 9.33938 11.4424 9.33938 12.0833C9.33938 12.7243 9.59399 13.339 10.0472 13.7922C10.5004 14.2454 11.1151 14.5 11.756 14.5C12.397 14.5 13.0117 14.2454 13.4649 13.7922C13.9181 13.339 14.1727 12.7243 14.1727 12.0833C14.1727 11.4424 13.9181 10.8277 13.4649 10.3745C13.0117 9.92128 12.397 9.66667 11.756 9.66667ZM9.33938 24.1667C9.0373 24.1667 8.78355 23.9492 8.73521 23.6592L8.28813 20.4571C7.52688 20.155 6.87438 19.7442 6.24605 19.2608L3.23729 20.4812C2.97146 20.5779 2.64521 20.4812 2.50021 20.2154L0.0835449 16.0346C0.00958953 15.9101 -0.0164824 15.7629 0.0102046 15.6206C0.0368916 15.4782 0.11451 15.3505 0.228545 15.2612L2.77813 13.2554L2.69355 12.0833L2.77813 10.875L0.228545 8.90542C0.11451 8.81616 0.0368916 8.68843 0.0102046 8.54609C-0.0164824 8.40376 0.00958953 8.25659 0.0835449 8.13208L2.50021 3.95125C2.64521 3.68542 2.97146 3.57667 3.23729 3.68542L6.24605 4.89375C6.87438 4.4225 7.52688 4.01167 8.28813 3.70958L8.73521 0.5075C8.78355 0.2175 9.0373 0 9.33938 0H14.1727C14.4748 0 14.7285 0.2175 14.7769 0.5075L15.224 3.70958C15.9852 4.01167 16.6377 4.4225 17.266 4.89375L20.2748 3.68542C20.5406 3.57667 20.8669 3.68542 21.0119 3.95125L23.4285 8.13208C23.5856 8.39792 23.5131 8.72417 23.2835 8.90542L20.734 10.875L20.8185 12.0833L20.734 13.2917L23.2835 15.2612C23.5131 15.4425 23.5856 15.7687 23.4285 16.0346L21.0119 20.2154C20.8669 20.4812 20.5406 20.59 20.2748 20.4812L17.266 19.2729C16.6377 19.7442 15.9852 20.155 15.224 20.4571L14.7769 23.6592C14.7285 23.9492 14.4748 24.1667 14.1727 24.1667H9.33938ZM10.8498 2.41667L10.4027 5.57042C8.95271 5.8725 7.67188 6.64583 6.74146 7.72125L3.82938 6.46458L2.92313 8.03542L5.47271 9.90833C4.98938 11.3181 4.98938 12.8486 5.47271 14.2583L2.91105 16.1433L3.8173 17.7142L6.75355 16.4575C7.68396 17.5208 8.95271 18.2942 10.3906 18.5842L10.8377 21.75H12.6744L13.1215 18.5962C14.5594 18.2942 15.8281 17.5208 16.7585 16.4575L19.6948 17.7142L20.601 16.1433L18.0394 14.2704C18.5227 12.8567 18.5227 11.3221 18.0394 9.90833L20.589 8.03542L19.6827 6.46458L16.7706 7.72125C15.8211 6.62206 14.5332 5.86969 13.1094 5.5825L12.6623 2.41667H10.8498Z" fill="black"/>
</svg>
