<svg width="15" height="15" viewBox="0 0 15 15" fill="none" xmlns="http://www.w3.org/2000/svg">
<path d="M6.625 8.625L5.28125 7.28125C5.16667 7.16667 5.02083 7.10938 4.84375 7.10938C4.66667 7.10938 4.52083 7.16667 4.40625 7.28125C4.29167 7.39583 4.23438 7.54167 4.23438 7.71875C4.23438 7.89583 4.29167 8.04167 4.40625 8.15625L6.1875 9.9375C6.3125 10.0625 6.45833 10.125 6.625 10.125C6.79167 10.125 6.9375 10.0625 7.0625 9.9375L10.5938 6.40625C10.7083 6.29167 10.7656 6.14583 10.7656 5.96875C10.7656 5.79167 10.7083 5.64583 10.5938 5.53125C10.4792 5.41667 10.3333 5.35938 10.1563 5.35938C9.97917 5.35938 9.83333 5.41667 9.71875 5.53125L6.625 8.625ZM7.5 13.75C6.63542 13.75 5.82292 13.5858 5.0625 13.2575C4.30208 12.9292 3.64063 12.484 3.07813 11.9219C2.51563 11.3594 2.07042 10.6979 1.7425 9.9375C1.41458 9.17708 1.25042 8.36458 1.25 7.5C1.25 6.63542 1.41417 5.82292 1.7425 5.0625C2.07083 4.30208 2.51604 3.64063 3.07813 3.07813C3.64063 2.51563 4.30208 2.07042 5.0625 1.7425C5.82292 1.41458 6.63542 1.25042 7.5 1.25C8.36458 1.25 9.17708 1.41417 9.9375 1.7425C10.6979 2.07083 11.3594 2.51604 11.9219 3.07813C12.4844 3.64063 12.9298 4.30208 13.2581 5.0625C13.5865 5.82292 13.7504 6.63542 13.75 7.5C13.75 8.36458 13.5858 9.17708 13.2575 9.9375C12.9292 10.6979 12.484 11.3594 11.9219 11.9219C11.3594 12.4844 10.6979 12.9298 9.9375 13.2581C9.17708 13.5865 8.36458 13.7504 7.5 13.75Z" fill="#FF5722"/>
</svg>
