<svg width="32" height="32" viewBox="0 0 32 32" fill="none" xmlns="http://www.w3.org/2000/svg">
<path d="M16 22.6667C16.3778 22.6667 16.6947 22.5387 16.9507 22.2827C17.2067 22.0267 17.3342 21.7102 17.3333 21.3333V17.3333H21.3333C21.7111 17.3333 22.028 17.2053 22.284 16.9493C22.54 16.6933 22.6676 16.3769 22.6667 16C22.6667 15.6222 22.5387 15.3053 22.2827 15.0493C22.0267 14.7933 21.7102 14.6658 21.3333 14.6667H17.3333V10.6667C17.3333 10.2889 17.2053 9.972 16.9493 9.716C16.6933 9.46 16.3769 9.33245 16 9.33334C15.6222 9.33334 15.3053 9.46134 15.0493 9.71734C14.7933 9.97334 14.6658 10.2898 14.6667 10.6667V14.6667H10.6667C10.2889 14.6667 9.972 14.7947 9.716 15.0507C9.46 15.3067 9.33245 15.6231 9.33334 16C9.33334 16.3778 9.46134 16.6947 9.71734 16.9507C9.97334 17.2067 10.2898 17.3342 10.6667 17.3333H14.6667V21.3333C14.6667 21.7111 14.7947 22.028 15.0507 22.284C15.3067 22.54 15.6231 22.6676 16 22.6667ZM6.66667 28C5.93334 28 5.30534 27.7387 4.78267 27.216C4.26 26.6933 3.99911 26.0658 4 25.3333V6.66667C4 5.93334 4.26134 5.30534 4.784 4.78267C5.30667 4.26 5.93422 3.99911 6.66667 4H25.3333C26.0667 4 26.6947 4.26134 27.2173 4.784C27.74 5.30667 28.0009 5.93422 28 6.66667V25.3333C28 26.0667 27.7387 26.6947 27.216 27.2173C26.6933 27.74 26.0658 28.0009 25.3333 28H6.66667ZM6.66667 25.3333H25.3333V6.66667H6.66667V25.3333Z" fill="#FF5722"/>
</svg>
