<svg width="115" height="115" viewBox="0 0 115 115" fill="none" xmlns="http://www.w3.org/2000/svg">
<path d="M0 14C0 6.26802 6.26801 0 14 0H101C108.732 0 115 6.26801 115 14V101C115 108.732 108.732 115 101 115H14C6.26802 115 0 108.732 0 101V14Z" fill="#FF5722" fill-opacity="0.17"/>
<path d="M42 39C42 38.4696 42.2107 37.9609 42.5858 37.5858C42.9609 37.2107 43.4696 37 44 37H72C72.5304 37 73.0391 37.2107 73.4142 37.5858C73.7893 37.9609 74 38.4696 74 39C74 39.5304 73.7893 40.0391 73.4142 40.4142C73.0391 40.7893 72.5304 41 72 41H44C43.4696 41 42.9609 40.7893 42.5858 40.4142C42.2107 40.0391 42 39.5304 42 39ZM44 45C43.4696 45 42.9609 45.2107 42.5858 45.5858C42.2107 45.9609 42 46.4696 42 47C42 47.5304 42.2107 48.0391 42.5858 48.4142C42.9609 48.7893 43.4696 49 44 49H72C72.5304 49 73.0391 48.7893 73.4142 48.4142C73.7893 48.0391 74 47.5304 74 47C74 46.4696 73.7893 45.9609 73.4142 45.5858C73.0391 45.2107 72.5304 45 72 45H44ZM42 29C38.8174 29 35.7652 30.2643 33.5147 32.5147C31.2643 34.7652 30 37.8174 30 41V73C30 76.1826 31.2643 79.2348 33.5147 81.4853C35.7652 83.7357 38.8174 85 42 85H74C77.1826 85 80.2348 83.7357 82.4853 81.4853C84.7357 79.2348 86 76.1826 86 73V41C86 37.8174 84.7357 34.7652 82.4853 32.5147C80.2348 30.2643 77.1826 29 74 29H42ZM82 57H68C67.4696 57 66.9609 57.2107 66.5858 57.5858C66.2107 57.9609 66 58.4696 66 59V59.044L65.984 59.284C65.8931 60.6116 65.5454 61.9089 64.96 63.104C64.4453 64.1791 63.6561 65.0994 62.672 65.772C61.632 66.468 60.152 67 58 67C55.848 67 54.372 66.468 53.328 65.772C52.3439 65.0994 51.5547 64.1791 51.04 63.104C50.4184 61.8364 50.0644 60.4544 50 59.044V59C50 58.4696 49.7893 57.9609 49.4142 57.5858C49.0391 57.2107 48.5304 57 48 57H34V41C34 38.8783 34.8429 36.8434 36.3431 35.3431C37.8434 33.8429 39.8783 33 42 33H74C76.1217 33 78.1566 33.8429 79.6569 35.3431C81.1571 36.8434 82 38.8783 82 41V57ZM34 61H46.2C46.388 62.056 46.748 63.464 47.46 64.896C48.204 66.38 49.352 67.928 51.108 69.1C52.88 70.28 55.148 71 58 71C60.852 71 63.12 70.28 64.892 69.1C66.652 67.928 67.796 66.38 68.54 64.896C69.252 63.464 69.612 62.056 69.8 61H82V73C82 75.1217 81.1571 77.1566 79.6569 78.6569C78.1566 80.1571 76.1217 81 74 81H42C39.8783 81 37.8434 80.1571 36.3431 78.6569C34.8429 77.1566 34 75.1217 34 73V61Z" fill="#FF5722"/>
</svg>
