<svg width="50" height="50" viewBox="0 0 50 50" fill="none" xmlns="http://www.w3.org/2000/svg">
<path d="M37.3852 29.7438C36.6375 27.033 35.0209 24.6424 32.7837 22.9388C30.5464 21.2351 27.812 20.3125 25 20.3125C22.1879 20.3125 19.4535 21.2351 17.2163 22.9388C14.979 24.6424 13.3625 27.033 12.6147 29.7438L10.8327 36.2038C10.5127 37.3637 10.465 38.5818 10.6932 39.7631C10.9214 40.9445 11.4194 42.0572 12.1483 43.0144C12.8773 43.9717 13.8175 44.7476 14.8956 45.2818C15.9737 45.8159 17.1607 46.0938 18.3639 46.0938H31.6361C32.8393 46.0938 34.0263 45.8159 35.1044 45.2818C36.1825 44.7476 37.1227 43.9717 37.8516 43.0144C38.5806 42.0572 39.0786 40.9445 39.3068 39.7631C39.535 38.5818 39.4872 37.3637 39.1673 36.2038L37.3852 29.7438ZM35.3655 41.1208C34.9301 41.6972 34.3663 42.1644 33.719 42.4851C33.0717 42.8059 32.3586 42.9715 31.6361 42.9688H18.3639C17.6419 42.9688 16.9298 42.8021 16.2829 42.4816C15.636 42.1611 15.0719 41.6955 14.6345 41.1212C14.1971 40.5468 13.8983 39.8792 13.7614 39.1704C13.6245 38.4616 13.6531 37.7307 13.8451 37.0348L15.6271 30.5749C16.1931 28.5234 17.4164 26.7143 19.1095 25.425C20.8026 24.1357 22.8719 23.4376 25 23.4376C27.1281 23.4376 29.1974 24.1357 30.8905 25.425C32.5836 26.7143 33.8069 28.5234 34.3728 30.5749L36.1549 37.0348C36.3496 37.7304 36.3797 38.4619 36.2427 39.1712C36.1057 39.8805 35.8053 40.5481 35.3655 41.1212V41.1208ZM14.2676 22.4913C14.5394 20.7921 14.1789 18.973 13.2519 17.368C12.325 15.7629 10.9297 14.5411 9.32255 13.9269C7.60145 13.2696 5.84599 13.3743 4.37782 14.2216C1.45917 15.9067 0.691103 20.0599 2.666 23.4799C3.59266 25.0849 4.98808 26.307 6.5952 26.9209C7.30713 27.1983 8.06386 27.343 8.82792 27.3477C9.77982 27.3512 10.7156 27.1022 11.5399 26.6262C13.0072 25.7788 13.976 24.3103 14.2676 22.4913ZM11.1816 21.9973C11.042 22.8693 10.6142 23.552 9.97724 23.9198C9.34022 24.2876 8.53515 24.3165 7.70995 24.0015C6.77118 23.6431 5.94091 22.9028 5.37196 21.9174C4.27821 20.0228 4.53817 17.7377 5.94032 16.9279C6.2928 16.7279 6.692 16.6248 7.09726 16.6293C7.47741 16.6332 7.85364 16.7066 8.20741 16.8458C9.14618 17.2045 9.97645 17.9446 10.5454 18.9301C11.1143 19.9155 11.3402 21.0051 11.1816 21.9973ZM14.606 16.0174C15.7156 16.9044 16.9827 17.3663 18.2641 17.3662C18.6479 17.3661 19.0306 17.3248 19.4056 17.2431C22.6988 16.5271 24.6956 12.8053 23.8567 8.94637C23.4632 7.13524 22.5063 5.54628 21.1626 4.47196C19.7236 3.32157 18.0191 2.88612 16.3631 3.24628C13.0699 3.9621 11.0731 7.68397 11.9119 11.5429C12.3056 13.3541 13.2624 14.9431 14.606 16.0174ZM17.0267 6.29999C17.1786 6.26725 17.3335 6.25088 17.4889 6.25116C18.0697 6.25116 18.6672 6.4784 19.2112 6.91337C19.9961 7.54081 20.5614 8.49872 20.803 9.61073C21.2679 11.7489 20.3239 13.8459 18.7418 14.1898C18.0229 14.3461 17.2472 14.1285 16.5575 13.577C15.7726 12.9495 15.2073 11.9916 14.9657 10.8797C14.5008 8.7409 15.4447 6.64393 17.0267 6.29999ZM45.6222 14.2216C44.1546 13.3743 42.3982 13.2696 40.6774 13.9269C39.0703 14.5409 37.6749 15.7629 36.7482 17.368C35.8216 18.973 35.4609 20.7925 35.7326 22.4913C36.0238 24.3103 36.9924 25.7788 38.4602 26.6262C39.2845 27.1022 40.2204 27.3512 41.1723 27.3477C41.9363 27.343 42.6931 27.1983 43.405 26.9209C45.0121 26.307 46.4075 25.0849 47.3342 23.4799C49.3089 20.0599 48.5408 15.9067 45.6222 14.2216ZM44.628 21.9174C44.0591 22.9028 43.2288 23.6431 42.29 24.0015C41.4652 24.3168 40.66 24.2878 40.0229 23.9198C39.3859 23.5518 38.9585 22.8693 38.8185 21.9973C38.6598 21.0051 38.8855 19.9159 39.4546 18.9309C40.0236 17.946 40.8538 17.2054 41.7926 16.8467C42.1463 16.7073 42.5225 16.6338 42.9027 16.6298C43.308 16.6253 43.7072 16.7284 44.0597 16.9284C45.4618 17.7375 45.7221 20.0223 44.628 21.9174ZM30.5944 17.2431C30.9694 17.3248 31.3521 17.3661 31.7359 17.3662C33.0172 17.3662 34.2848 16.9044 35.3939 16.0174C36.7376 14.9432 37.6944 13.3541 38.0881 11.543C38.9268 7.68407 36.9301 3.96219 33.6369 3.24637C31.9809 2.88641 30.2764 3.32157 28.8374 4.47206C27.4936 5.54628 26.5368 7.13534 26.1433 8.94637C25.3044 12.8053 27.3012 16.5271 30.5944 17.2431ZM29.197 9.61024C29.4386 8.49823 30.0039 7.53993 30.7888 6.91288C31.3329 6.47792 31.9303 6.25067 32.5111 6.25067C32.6665 6.25039 32.8214 6.26676 32.9732 6.2995C34.5553 6.64344 35.4992 8.74091 35.0345 10.8786C34.7927 11.9906 34.2273 12.9489 33.4427 13.5761C32.7531 14.1274 31.9778 14.345 31.2584 14.1889C29.6761 13.8454 28.7321 11.7481 29.197 9.61024Z" fill="white"/>
</svg>
