<svg width="17" height="16" viewBox="0 0 17 16" fill="none" xmlns="http://www.w3.org/2000/svg">
<g clip-path="url(#clip0_186_791)">
<path d="M11.83 6.45739L10.9463 5.51472L5.125 11.7241V12.6667H6.00875L11.83 6.45739ZM12.7138 5.51472L13.5975 4.57206L12.7138 3.62939L11.83 4.57206L12.7138 5.51472ZM6.52625 14.0001H3.875V11.1714L12.2719 2.21472C12.3891 2.08974 12.548 2.01953 12.7138 2.01953C12.8795 2.01953 13.0384 2.08974 13.1556 2.21472L14.9237 4.10072C15.0409 4.22574 15.1067 4.39528 15.1067 4.57206C15.1067 4.74883 15.0409 4.91837 14.9237 5.04339L6.52688 14.0001H6.52625Z" fill="#371818"/>
</g>
<path d="M1 15H15" stroke="#371818" stroke-linecap="round"/>
<defs>
<clipPath id="clip0_186_791">
<rect width="15" height="16" fill="white" transform="translate(2)"/>
</clipPath>
</defs>
</svg>
