<svg width="258" height="244" viewBox="0 0 258 244" fill="none" xmlns="http://www.w3.org/2000/svg">
<rect width="258" height="244" fill="url(#paint0_linear_1_13)"/>
<path d="M121.249 109.139C127.71 105.907 136.728 94.3261 140.43 88.9394C142.853 85.6071 140.766 84.1842 139.42 83.8892C125.287 81.8692 140.43 63.6891 143.458 57.6291C145.881 52.7811 151.871 51.5691 154.563 51.5691C167.485 45.1051 174.754 48.8758 176.773 51.5691C184.042 59.6492 191.243 61.6692 193.935 61.6692C204.434 62.4772 203.694 68.7392 202.012 71.7693C197.166 83.0813 191.243 87.9293 188.888 88.9394H179.295C169.703 94.9994 173.744 96.0094 172.735 96.0094C171.725 96.0094 171.725 127.32 171.725 130.35C171.725 132.774 168.36 136.746 166.678 138.43L173.744 185.9H180.811C188.888 190.748 184.176 194.653 180.811 196H141.439C142.247 191.96 139.757 189.603 138.411 188.93C143.256 176.81 142.449 162.333 141.439 156.61C148.708 148.53 146.487 139.776 144.468 136.41L145.477 122.27L135.382 131.36C130.536 130.552 125.287 131.023 123.268 131.36L112.163 124.29L113.172 136.41C110.749 142.874 110.817 147.183 111.153 148.53C111.153 152.57 115.191 156.273 117.21 157.62C100.25 166.508 98.0292 186.91 99.0387 196H78.848C56.2344 187.112 54.6191 169.403 56.6382 161.66C61.484 156.004 65.3875 159.303 66.7336 161.66C68.3488 181.86 76.8289 184.217 80.8671 182.87C73.8003 128.33 113.172 113.18 121.249 109.139Z" fill="white"/>
<path d="M133 140H137V144H133V140Z" fill="#FBFBFB"/>
<path d="M121 140H125V144H121V140Z" fill="#FBFBFB"/>
<defs>
<linearGradient id="paint0_linear_1_13" x1="157" y1="244" x2="-23.5" y2="-223" gradientUnits="userSpaceOnUse">
<stop stop-color="#FF5722"/>
<stop offset="0.966663" stop-color="white"/>
</linearGradient>
</defs>
</svg>
