<svg width="102" height="102" viewBox="0 0 102 102" fill="none" xmlns="http://www.w3.org/2000/svg">
<g clip-path="url(#clip0_25_51)">
<path d="M8.5 21.25L38.25 8.5L63.75 21.25L90.5378 9.77075C90.8611 9.63213 91.2138 9.57597 91.5643 9.60731C91.9147 9.63864 92.2519 9.7565 92.5455 9.95029C92.8391 10.1441 93.0801 10.4078 93.2467 10.7176C93.4133 11.0275 93.5003 11.3739 93.5 11.7258V80.75L63.75 93.5L38.25 80.75L11.4623 92.2292C11.1389 92.3679 10.7862 92.424 10.4357 92.3927C10.0853 92.3614 9.74814 92.2435 9.4545 92.0497C9.16085 91.8559 8.91992 91.5922 8.75333 91.2824C8.58673 90.9725 8.49969 90.6261 8.5 90.2742V21.25ZM68 82.4287L85 75.1442V21.3903L68 28.6748V82.4287ZM59.5 81.872V28.628L42.5 20.128V73.372L59.5 81.872ZM34 73.3252V19.5712L17 26.8557V80.6097L34 73.3252Z" fill="#FF5722"/>
</g>
<defs>
<clipPath id="clip0_25_51">
<rect width="102" height="102" fill="white"/>
</clipPath>
</defs>
</svg>
