<svg width="32" height="32" viewBox="0 0 32 32" fill="none" xmlns="http://www.w3.org/2000/svg">
<path fill-rule="evenodd" clip-rule="evenodd" d="M3.69333 10.764C3 12.0267 3 13.5533 3 16.604V18.6333C3 23.8333 3 26.4347 4.56267 28.0507C6.124 29.6667 8.63867 29.6667 13.6667 29.6667H19C24.028 29.6667 26.5427 29.6667 28.104 28.0507C29.6667 26.4347 29.6667 23.8347 29.6667 18.6333V16.6053C29.6667 13.5533 29.6667 12.028 28.9733 10.764C28.2827 9.49867 27.0173 8.71467 24.488 7.144L21.8213 5.48933C19.148 3.82933 17.8107 3 16.3333 3C14.856 3 13.52 3.82933 10.8453 5.48933L8.17867 7.144C5.64933 8.71467 4.38533 9.49867 3.69333 10.764ZM12.9293 20.864C12.8242 20.7822 12.7038 20.7222 12.5751 20.6876C12.4465 20.6529 12.3122 20.6444 12.1802 20.6624C12.0482 20.6803 11.9211 20.7245 11.8064 20.7923C11.6917 20.8601 11.5917 20.9501 11.5123 21.057C11.4329 21.164 11.3757 21.2858 11.3439 21.4152C11.3122 21.5445 11.3067 21.679 11.3277 21.8105C11.3486 21.9421 11.3957 22.0681 11.466 22.1813C11.5364 22.2944 11.6286 22.3923 11.7373 22.4693C13.0644 23.4615 14.6764 23.9984 16.3333 24C17.9902 23.9984 19.6023 23.4615 20.9293 22.4693C21.0381 22.3923 21.1303 22.2944 21.2007 22.1813C21.271 22.0681 21.3181 21.9421 21.339 21.8105C21.36 21.679 21.3544 21.5445 21.3227 21.4152C21.291 21.2858 21.2338 21.164 21.1543 21.057C21.0749 20.9501 20.9749 20.8601 20.8602 20.7923C20.7455 20.7245 20.6185 20.6803 20.4865 20.6624C20.3545 20.6444 20.2202 20.6529 20.0915 20.6876C19.9629 20.7222 19.8425 20.7822 19.7373 20.864C18.7549 21.6 17.5608 21.9985 16.3333 22C15.1058 21.9985 13.9117 21.6 12.9293 20.864Z" fill="#FF5722"/>
</svg>
