<svg width="24" height="24" viewBox="0 0 24 24" fill="none" xmlns="http://www.w3.org/2000/svg">
<path d="M5.7936 12.582L12.582 5.7936C13.2572 5.11841 14.1729 4.7391 15.1278 4.7391C16.0827 4.7391 16.9984 5.11841 17.6736 5.7936C18.3488 6.46879 18.7281 7.38454 18.7281 8.3394C18.7281 9.29426 18.3488 10.21 17.6736 10.8852L9.612 18.9456C9.27252 19.2735 8.81783 19.4549 8.34588 19.4508C7.87392 19.4467 7.42246 19.2574 7.08873 18.9237C6.75499 18.5899 6.56569 18.1385 6.56159 17.6665C6.55749 17.1946 6.73892 16.7399 7.0668 16.4004L14.2788 9.1884C14.3915 9.0759 14.4548 8.92325 14.4549 8.76403C14.455 8.60481 14.3919 8.45207 14.2794 8.3394C14.1669 8.22674 14.0142 8.16338 13.855 8.16327C13.6958 8.16316 13.5431 8.2263 13.4304 8.3388L6.2184 15.5508C5.65978 16.1142 5.34707 16.8759 5.34869 17.6693C5.35032 18.4626 5.66615 19.2231 6.22707 19.7841C6.78799 20.3452 7.54833 20.6613 8.3417 20.6631C9.13507 20.665 9.89687 20.3525 10.4604 19.794L18.522 11.7336C19.4224 10.8334 19.9282 9.61241 19.9283 8.33923C19.9285 7.06604 19.4228 5.84496 18.5226 4.9446C17.6224 4.04425 16.4014 3.53837 15.1282 3.53825C13.855 3.53814 12.634 4.0438 11.7336 4.944L4.944 11.7336C4.83471 11.8468 4.77423 11.9983 4.7756 12.1556C4.77696 12.313 4.84006 12.4634 4.95131 12.5747C5.06255 12.6859 5.21304 12.749 5.37036 12.7504C5.52768 12.7518 5.68044 12.6913 5.7936 12.582Z" fill="black"/>
</svg>
