<svg width="17" height="17" viewBox="0 0 17 17" fill="none" xmlns="http://www.w3.org/2000/svg">
<g clip-path="url(#clip0_101_2072)">
<path d="M12.1429 6.0715V8.50007C12.1429 8.82212 12.2708 9.13098 12.4985 9.3587C12.7263 9.58642 13.0351 9.71436 13.3572 9.71436H13.9643M13.9643 9.71436C14.6084 9.71436 15.2261 9.45849 15.6816 9.00304C16.137 8.5476 16.3929 7.92988 16.3929 7.28578V3.64293C16.3929 3.32088 16.265 3.01202 16.0372 2.7843C15.8095 2.55657 15.5007 2.42864 15.1786 2.42864H13.3572C12.9729 2.42827 12.5942 2.33672 12.2522 2.1615C11.0928 1.55647 9.80764 1.23205 8.50003 1.21436C7.1842 1.22825 5.89025 1.55277 4.72361 2.1615C4.38786 2.3302 4.01857 2.42149 3.64289 2.42864H1.82146C1.49941 2.42864 1.19056 2.55657 0.962834 2.7843C0.735111 3.01202 0.607178 3.32088 0.607178 3.64293V7.28578C0.607178 7.92988 0.863044 8.5476 1.31849 9.00304C1.77394 9.45849 2.39165 9.71436 3.03575 9.71436M13.9643 9.71436L13.5879 11.6208C13.3564 12.8 12.7224 13.8623 11.7943 14.6258C10.8663 15.3894 9.70181 15.8068 8.50003 15.8068C7.29826 15.8068 6.1338 15.3894 5.20575 14.6258C4.27771 13.8623 3.64372 12.8 3.41218 11.6208L3.03575 9.71436M3.03575 9.71436H3.64289C3.96494 9.71436 4.2738 9.58642 4.50152 9.3587C4.72924 9.13098 4.85718 8.82212 4.85718 8.50007V6.0715M7.89289 12.1429H9.10718" stroke="black" stroke-linecap="round" stroke-linejoin="round"/>
</g>
<defs>
<clipPath id="clip0_101_2072">
<rect width="17" height="17" fill="white"/>
</clipPath>
</defs>
</svg>
