<svg width="16" height="18" viewBox="0 0 16 18" fill="none" xmlns="http://www.w3.org/2000/svg">
<path d="M7.99927 18C6.91593 18 5.9116 17.7333 4.98627 17.2C4.06093 16.6667 3.33193 15.9333 2.79927 15H-0.000732422V13H2.09927C2.04927 12.6667 2.01993 12.3333 2.01127 12C2.0026 11.6667 1.9986 11.3333 1.99927 11H-0.000732422V9H1.99927C1.99927 8.66667 2.00327 8.33333 2.01127 8C2.01927 7.66667 2.0486 7.33333 2.09927 7H-0.000732422V5H2.79927C3.0326 4.61667 3.29527 4.25833 3.58727 3.925C3.87927 3.59167 4.2166 3.3 4.59927 3.05L2.99927 1.4L4.39927 0L6.54927 2.15C7.01593 2 7.49093 1.925 7.97427 1.925C8.4576 1.925 8.9326 2 9.39927 2.15L11.5993 0L12.9993 1.4L11.3493 3.05C11.7326 3.3 12.0786 3.58733 12.3873 3.912C12.6959 4.23667 12.9666 4.59933 13.1993 5H15.9993V7H13.8993C13.9493 7.33333 13.9786 7.66667 13.9873 8C13.9959 8.33333 13.9999 8.66667 13.9993 9H15.9993V11H13.9993C13.9993 11.3333 13.9949 11.6667 13.9863 12C13.9776 12.3333 13.9486 12.6667 13.8993 13H15.9993V15H13.1993C12.6659 15.9333 11.9366 16.6667 11.0113 17.2C10.0859 17.7333 9.08193 18 7.99927 18ZM7.99927 16C9.09927 16 10.0409 15.6083 10.8243 14.825C11.6076 14.0417 11.9993 13.1 11.9993 12V8C11.9993 6.9 11.6076 5.95833 10.8243 5.175C10.0409 4.39167 9.09927 4 7.99927 4C6.89927 4 5.9576 4.39167 5.17427 5.175C4.39093 5.95833 3.99927 6.9 3.99927 8V12C3.99927 13.1 4.39093 14.0417 5.17427 14.825C5.9576 15.6083 6.89927 16 7.99927 16ZM5.99927 13H9.99927V11H5.99927V13ZM5.99927 9H9.99927V7H5.99927V9Z" fill="black"/>
</svg>
