<svg width="30" height="30" viewBox="0 0 30 30" fill="none" xmlns="http://www.w3.org/2000/svg">
<path d="M11.25 23.75V21.25H26.25V23.75H11.25ZM11.25 16.25V13.75H26.25V16.25H11.25ZM11.25 8.75V6.25H26.25V8.75H11.25ZM6.25 25C5.5625 25 4.97375 24.755 4.48375 24.265C3.99375 23.775 3.74917 23.1867 3.75 22.5C3.75 21.8125 3.995 21.2238 4.485 20.7338C4.975 20.2438 5.56334 19.9992 6.25 20C6.9375 20 7.52625 20.245 8.01625 20.735C8.50625 21.225 8.75084 21.8133 8.75 22.5C8.75 23.1875 8.505 23.7763 8.015 24.2663C7.525 24.7563 6.93667 25.0008 6.25 25ZM6.25 17.5C5.5625 17.5 4.97375 17.255 4.48375 16.765C3.99375 16.275 3.74917 15.6867 3.75 15C3.75 14.3125 3.995 13.7238 4.485 13.2338C4.975 12.7438 5.56334 12.4992 6.25 12.5C6.9375 12.5 7.52625 12.745 8.01625 13.235C8.50625 13.725 8.75084 14.3133 8.75 15C8.75 15.6875 8.505 16.2763 8.015 16.7663C7.525 17.2563 6.93667 17.5008 6.25 17.5ZM6.25 10C5.5625 10 4.97375 9.755 4.48375 9.265C3.99375 8.775 3.74917 8.18667 3.75 7.5C3.75 6.8125 3.995 6.22375 4.485 5.73375C4.975 5.24375 5.56334 4.99917 6.25 5C6.9375 5 7.52625 5.245 8.01625 5.735C8.50625 6.225 8.75084 6.81334 8.75 7.5C8.75 8.1875 8.505 8.77625 8.015 9.26625C7.525 9.75625 6.93667 10.0008 6.25 10Z" fill="black"/>
</svg>
