<svg width="30" height="29" viewBox="0 0 30 29" fill="none" xmlns="http://www.w3.org/2000/svg">
<path d="M27.3333 13.1818L26.5 11.3693L24.6667 10.5455L26.5 9.72159L27.3333 7.90909L28.1667 9.72159L30 10.5455L28.1667 11.3693L27.3333 13.1818ZM23.3333 7.90909L22.0667 5.20682L19.3333 3.95455L22.0667 2.70227L23.3333 0L24.6 2.70227L27.3333 3.95455L24.6 5.20682L23.3333 7.90909ZM10 29C9.26667 29 8.63867 28.7416 8.116 28.2249C7.59333 27.7082 7.33245 27.0878 7.33333 26.3636H12.6667C12.6667 27.0886 12.4053 27.7095 11.8827 28.2262C11.36 28.743 10.7324 29.0009 10 29ZM4.66667 25.0455V22.4091H15.3333V25.0455H4.66667ZM5 21.0909C3.46667 20.1902 2.24978 18.9818 1.34933 17.4659C0.44889 15.95 -0.000887574 14.3023 1.31492e-06 12.5227C1.31492e-06 9.77652 0.972446 7.44201 2.91733 5.51923C4.86222 3.59644 7.22311 2.63548 10 2.63636C12.7778 2.63636 15.1391 3.59776 17.084 5.52055C19.0289 7.44333 20.0009 9.77739 20 12.5227C20 14.3023 19.5502 15.95 18.6507 17.4659C17.7511 18.9818 16.5342 20.1902 15 21.0909H5ZM5.8 18.4545H14.2C15.2 17.7515 15.9724 16.8837 16.5173 15.8511C17.0622 14.8186 17.3342 13.7091 17.3333 12.5227C17.3333 10.5015 16.6222 8.78788 15.2 7.38182C13.7778 5.97576 12.0444 5.27273 10 5.27273C7.95556 5.27273 6.22222 5.97576 4.8 7.38182C3.37778 8.78788 2.66667 10.5015 2.66667 12.5227C2.66667 13.7091 2.93867 14.8186 3.48267 15.8511C4.02667 16.8837 4.79911 17.7515 5.8 18.4545Z" fill="black"/>
</svg>
