<svg width="766" height="181" viewBox="0 0 766 181" fill="none" xmlns="http://www.w3.org/2000/svg">
<path d="M166.391 104.346C166.391 107.477 166.835 109.424 167.724 110.186C168.612 110.905 170.622 111.265 173.754 111.265H174.389L174.96 111.201H175.531C182.768 111.201 188.269 109.466 192.035 105.996C195.801 102.484 197.685 97.7653 197.685 91.8408V89.873C197.685 84.8796 196.161 80.9863 193.114 78.1934C190.11 75.4004 185.709 74.0039 179.911 74.0039H179.276L178.705 74.0674C174.05 74.0674 170.707 74.5752 168.676 75.5908C167.364 76.2679 166.708 77.9818 166.708 80.7324L166.581 81.875L166.518 83.7158C166.518 86.1702 166.518 88.6458 166.518 91.1426L166.454 93.0469V98.7598L166.391 101.235V104.346ZM154.33 101.235L153.505 77.3682C153.505 71.1898 154.647 67.6562 156.933 66.7676C160.868 65.2441 168.993 64.4824 181.308 64.4824H184.164C191.866 64.4824 198.214 66.5137 203.207 70.5762C205.873 72.7344 207.989 75.5062 209.555 78.8916C211.163 82.2347 211.967 85.9375 211.967 90V91.46C211.967 101.066 208.179 108.662 200.604 114.248C196.796 117.041 190.596 119.178 182.006 120.659C173.458 122.098 168.782 123.389 167.978 124.531C166.75 126.224 165.883 130.519 165.375 137.417C164.867 144.272 164.423 148.229 164.042 149.287C163.196 151.784 161.566 153.032 159.154 153.032H158.075C156.171 153.032 154.796 152.63 153.949 151.826C153.103 151.022 152.68 149.647 152.68 147.7V146.367L153.251 138.369C153.547 134.137 153.695 130.985 153.695 128.911L153.759 127.515C153.801 126.584 153.822 125.653 153.822 124.722L153.949 121.929C154.034 120.067 154.076 118.67 154.076 117.739L154.203 115.01L154.33 108.154V101.235Z" fill="white"/>
<path d="M232.279 137.544C232.279 140.252 233.591 142.516 236.215 144.336C237.95 145.563 240.404 146.177 243.578 146.177H243.959C244.721 146.05 245.525 145.986 246.371 145.986C249.206 145.986 251.745 144.717 253.988 142.178C256.273 139.639 257.416 137.205 257.416 134.878L257.543 134.116L257.733 130.752V127.451C257.733 125.885 257.204 124.827 256.146 124.277C255.131 123.685 253.163 123.389 250.243 123.389H249.354L248.91 123.452H248.085L245.419 123.643C244.53 123.77 243.811 123.833 243.261 123.833C240.214 123.833 237.59 124.785 235.39 126.689C233.231 128.594 232.152 131.133 232.152 134.307V136.147C232.237 136.825 232.279 137.29 232.279 137.544ZM227.772 102.949C224.979 102.949 223.583 101.426 223.583 98.3789C223.583 96.263 225.043 94.4857 227.963 93.0469C232.618 90.7194 237.59 89.5557 242.88 89.5557H245.927C250.159 89.5557 254.115 90.3174 257.797 91.8408C261.521 93.3643 264.377 95.7129 266.366 98.8867C268.905 102.907 270.175 111.815 270.175 125.61C270.175 132.889 270.429 138.263 270.937 141.733C271.487 145.203 271.762 147.743 271.762 149.351C271.762 152.524 269.73 154.111 265.668 154.111C263.848 154.111 262.156 153.561 260.59 152.461C259.024 151.361 257.776 150.811 256.845 150.811C255.914 150.811 253.438 151.615 249.418 153.223C245.398 154.831 241.356 155.635 237.294 155.635C231.581 155.635 227.095 153.836 223.837 150.239C220.621 146.642 219.013 142.22 219.013 136.973V135.513C219.013 129.08 221.806 124.108 227.392 120.596C231.031 118.311 236.638 116.745 244.213 115.898C251.83 115.052 255.85 114.375 256.273 113.867C256.824 113.232 257.099 112.153 257.099 110.63C257.099 110.164 257.077 109.678 257.035 109.17C256.485 103.161 252.253 100.135 244.34 100.093C241.42 100.093 238.225 100.579 234.755 101.553C231.285 102.484 228.957 102.949 227.772 102.949Z" fill="white"/>
<path d="M325.59 119.58C325.04 119.58 323.051 123.304 319.623 130.752C316.195 138.2 313.677 143.13 312.069 145.542C309.361 149.604 306.907 151.636 304.706 151.636C300.644 151.636 297.872 149.541 296.391 145.352C294.571 140.316 292.349 131.704 289.726 119.517C287.144 107.329 285.854 99.9658 285.854 97.4268C285.854 95.988 286.488 95.2686 287.758 95.2686C290.593 95.2686 293.069 97.4056 295.185 101.68C295.312 101.934 297.068 107.816 300.453 119.326C303.839 130.837 306.293 136.592 307.816 136.592C308.917 136.592 310.948 131.514 313.91 121.357C314.926 117.887 315.941 114.1 316.957 109.995L317.973 105.488C318.819 101.722 319.348 99.5638 319.56 99.0137C320.533 96.263 322.543 94.8877 325.59 94.8877C328.679 94.8877 330.71 95.861 331.684 97.8076C332.657 99.7119 334.477 106.673 337.143 118.691C339.809 130.667 341.84 136.655 343.236 136.655C344.633 136.655 347.383 130.435 351.488 117.993C355.593 105.509 357.751 99.0771 357.963 98.6963C359.529 96.0726 361.581 94.7607 364.12 94.7607C364.924 94.7607 365.326 95.2686 365.326 96.2842C365.326 99.2464 364.374 105.658 362.47 115.518C360.608 125.335 358.217 134.561 355.297 143.193C354.366 145.902 353.223 147.891 351.869 149.16C350.557 150.43 348.653 151.064 346.156 151.064C341.882 151.064 336.169 143.066 329.018 127.07C326.817 122.077 325.674 119.58 325.59 119.58Z" fill="white"/>
<path d="M385.067 120.342C381.47 117.253 379.672 113.19 379.672 108.154C379.672 103.076 381.788 98.8867 386.02 95.5859C390.294 92.2852 395.943 90.6348 402.968 90.6348H404.555C408.448 90.6348 411.876 91.1849 414.838 92.2852C419.451 94.0202 421.757 95.9245 421.757 97.998C421.757 101.045 420.212 102.568 417.123 102.568C416.827 102.568 415.028 102.188 411.728 101.426C408.469 100.622 405.486 100.22 402.777 100.22C400.069 100.22 397.636 100.876 395.478 102.188C393.319 103.499 392.24 105.404 392.24 107.9C392.24 110.397 393.573 112.45 396.239 114.058C397.847 115.031 401.444 116.47 407.03 118.374C412.659 120.278 416.869 122.394 419.662 124.722C423.301 127.726 425.121 131.577 425.121 136.274V137.798C425.121 142.918 422.878 147.171 418.393 150.557C413.949 153.942 408.511 155.635 402.079 155.635H400.429C394.927 155.635 389.997 154.661 385.639 152.715C381.28 150.726 379.101 148.589 379.101 146.304C379.101 143.088 380.73 141.479 383.988 141.479C384.708 141.479 386.887 142.114 390.526 143.384C394.208 144.611 397.72 145.225 401.063 145.225C404.407 145.225 407.136 144.548 409.252 143.193C411.368 141.839 412.426 139.914 412.426 137.417C412.426 134.878 411.072 132.762 408.363 131.069C406.713 130.011 402.989 128.467 397.191 126.436C391.436 124.362 387.395 122.331 385.067 120.342Z" fill="white"/>
<path d="M455.463 73.6865C455.463 78.0876 452.966 80.2881 447.973 80.2881H447.465L447.211 80.2246L445.307 80.0342C445.137 79.9919 444.989 79.9707 444.862 79.9707C442.112 79.9707 440.736 78.0876 440.736 74.3213V73.1152C440.736 70.7878 441.265 69.0951 442.323 68.0371C443.381 66.9792 444.693 66.4502 446.259 66.4502L447.719 66.2598H449.179L451.337 66.5771C453.961 66.5771 455.272 68.0583 455.272 71.0205L455.463 72.4805V73.6865ZM453.368 125.737L456.034 145.225V146.621L455.971 147.256C455.971 150.007 455.399 151.953 454.257 153.096C453.114 154.238 450.893 154.81 447.592 154.81H446.83C443.868 154.81 441.985 153.201 441.181 149.985C440.757 148.335 440.546 141.966 440.546 130.879V103.711L440.229 99.458V98.0615C440.229 95.988 440.609 94.5492 441.371 93.7451C442.133 92.9411 443.339 92.5391 444.989 92.5391H447.147C450.152 92.5391 451.993 93.6182 452.67 95.7764C452.966 96.7074 453.114 100.177 453.114 106.187V119.897L453.305 123.706C453.347 124.214 453.368 124.891 453.368 125.737Z" fill="white"/>
<path d="M481.869 147.891C478.907 143.405 477.426 136.084 477.426 125.928C477.426 115.771 476.812 108.853 475.585 105.171C475.077 103.647 474.062 102.293 472.538 101.108C471.057 99.9235 470.316 98.3366 470.316 96.3477C470.316 94.3587 471.12 92.7506 472.729 91.5234C473.067 91.2695 473.871 90.7829 475.141 90.0635C476.41 89.3018 477.257 88.6035 477.68 87.9688C478.103 87.3763 478.547 85.3451 479.013 81.875C480.028 74.9349 481.89 71.4648 484.599 71.4648H485.551C487.709 71.4648 489.232 72.3324 490.121 74.0674C490.587 74.9137 491.052 77.1566 491.518 80.7959C492.025 84.4352 492.702 86.8262 493.549 87.9688C494.395 89.069 496.553 90.2327 500.023 91.46C503.493 92.6872 505.229 94.1895 505.229 95.9668C505.229 97.7018 503.811 99.0137 500.976 99.9023C496.744 101.214 494.205 102.695 493.358 104.346C491.369 108.197 490.375 115.962 490.375 127.642C490.375 133.058 490.989 136.782 492.216 138.813C493.443 140.802 495.157 142.22 497.357 143.066C497.569 143.151 498.437 143.426 499.96 143.892C501.526 144.315 502.774 144.886 503.705 145.605C504.636 146.283 505.102 147.425 505.102 149.033C505.102 150.599 504.34 151.911 502.816 152.969C501.208 154.027 498.965 154.556 496.088 154.556C489.613 154.556 484.874 152.334 481.869 147.891Z" fill="white"/>
<path d="M536.332 73.6865C536.332 78.0876 533.835 80.2881 528.842 80.2881H528.334L528.08 80.2246L526.176 80.0342C526.007 79.9919 525.858 79.9707 525.731 79.9707C522.981 79.9707 521.605 78.0876 521.605 74.3213V73.1152C521.605 70.7878 522.134 69.0951 523.192 68.0371C524.25 66.9792 525.562 66.4502 527.128 66.4502L528.588 66.2598H530.048L532.206 66.5771C534.83 66.5771 536.142 68.0583 536.142 71.0205L536.332 72.4805V73.6865ZM534.237 125.737L536.903 145.225V146.621L536.84 147.256C536.84 150.007 536.269 151.953 535.126 153.096C533.983 154.238 531.762 154.81 528.461 154.81H527.699C524.737 154.81 522.854 153.201 522.05 149.985C521.627 148.335 521.415 141.966 521.415 130.879V103.711L521.098 99.458V98.0615C521.098 95.988 521.479 94.5492 522.24 93.7451C523.002 92.9411 524.208 92.5391 525.858 92.5391H528.017C531.021 92.5391 532.862 93.6182 533.539 95.7764C533.835 96.7074 533.983 100.177 533.983 106.187V119.897L534.174 123.706C534.216 124.214 534.237 124.891 534.237 125.737Z" fill="white"/>
<path d="M548.964 94.9512C548.964 93.4701 550.212 92.7295 552.709 92.7295C555.248 92.7295 557.237 93.2373 558.676 94.2529C560.157 95.2686 561.575 97.2363 562.929 100.156C564.325 103.076 566.695 110.439 570.038 122.246C573.424 134.01 575.709 139.893 576.894 139.893C577.867 139.893 580.448 133.63 584.638 121.104C588.827 108.535 591.726 100.664 593.334 97.4902C594.942 94.2741 597.227 92.666 600.189 92.666C603.152 92.666 604.633 93.597 604.633 95.459C604.633 96.2207 602.559 102.992 598.412 115.771C594.265 128.509 590.202 138.962 586.225 147.129C584.701 150.303 583.241 152.334 581.845 153.223C580.448 154.111 578.607 154.556 576.322 154.556C574.037 154.556 572.302 154.09 571.117 153.159C569.975 152.228 568.155 149.054 565.658 143.638C563.161 138.221 559.755 128.869 555.438 115.581C551.122 102.293 548.964 95.4167 548.964 94.9512Z" fill="white"/>
<path d="M644.687 117.676C647.395 117.676 649.722 117.062 651.669 115.835C652.727 115.158 653.256 113.804 653.256 111.772V111.392C653.256 108.345 652.325 105.785 650.463 103.711C648.601 101.595 645.956 100.537 642.528 100.537H641.767C637.916 100.537 634.361 101.976 631.103 104.854C627.886 107.731 626.278 111.37 626.278 115.771V116.851C626.278 118.162 627.273 118.818 629.262 118.818L629.896 118.945H632.182L632.562 118.882L636.054 118.628L636.498 118.564L638.847 118.374C639.143 118.332 639.481 118.289 639.862 118.247C640.243 118.205 641.005 118.099 642.147 117.93C643.332 117.76 644.179 117.676 644.687 117.676ZM641.322 155.698H639.862C635.588 155.656 631.695 154.873 628.183 153.35C621.454 150.387 616.905 145.309 614.535 138.115C613.223 134.095 612.567 130.033 612.567 125.928V123.071C612.61 118.797 613.435 114.544 615.043 110.312C618.344 101.764 623.782 96.0938 631.356 93.3008C634.911 92.0312 638.55 91.3965 642.274 91.3965H643.671C649.68 91.3965 654.674 93.2585 658.651 96.9824C662.629 100.664 664.618 105.7 664.618 112.09V113.359C664.618 117.845 663.179 120.998 660.302 122.817C658.101 124.214 653.044 125.483 645.131 126.626C637.26 127.769 632.541 128.594 630.976 129.102C628.437 129.906 627.167 131.069 627.167 132.593C627.167 136.444 629.092 139.66 632.943 142.241C635.186 143.722 638.677 144.463 643.417 144.463C645.364 144.463 648.389 143.892 652.494 142.749C656.641 141.564 659.244 140.972 660.302 140.972C662.799 140.972 664.047 142.241 664.047 144.78C664.047 147.319 661.614 149.774 656.747 152.144C651.923 154.513 646.781 155.698 641.322 155.698Z" fill="white"/>
<path d="M687.978 61.1816H690.072C692.104 61.1816 693.479 61.6048 694.198 62.4512C694.918 63.2975 695.383 64.3555 695.595 65.625C695.806 66.8945 695.912 69.7298 695.912 74.1309L695.595 87.4609V89.6826L695.468 93.0469V95.2686L695.15 108.789V111.011L695.087 113.232C695.087 121.908 695.172 127.303 695.341 129.419C695.552 131.493 696.229 135.174 697.372 140.464C698.515 145.754 699.086 148.42 699.086 148.462C699.086 150.832 698.578 152.503 697.562 153.477C696.589 154.408 694.812 154.873 692.23 154.873H691.151C688.358 154.873 686.306 153.9 684.994 151.953C683.048 149.118 682.074 145.076 682.074 139.829V135.767L682.138 134.688L682.265 130.562L682.328 129.482C682.328 128.763 682.328 128.044 682.328 127.324L682.455 122.881V120.659L682.582 115.01V112.788L682.772 105.996V103.774L682.963 95.9033C682.963 95.1416 682.963 94.3799 682.963 93.6182L683.09 89.1748V86.9531L683.217 81.3672V76.9873L682.899 68.7354C682.899 66.0693 683.28 64.1439 684.042 62.959C684.804 61.7741 686.116 61.1816 687.978 61.1816Z" fill="white"/>
<path d="M718.827 95.0781C721.155 95.0781 723.122 96.8343 724.73 100.347C726.381 103.859 728.391 110.545 730.761 120.405C733.131 130.265 735.543 136.401 737.997 138.813C740.325 138.813 742.927 135.343 745.805 128.403C747.413 124.552 749.127 118.713 750.946 110.884C752.766 103.055 754.247 98.0827 755.39 95.9668C756.532 93.8086 758.161 92.7295 760.277 92.7295H761.674C764.34 92.7295 765.673 94.1471 765.673 96.9824C765.673 98.3789 763.79 107.435 760.023 124.15C756.299 140.866 752.766 152.63 749.423 159.443C746.08 166.257 742.102 171.525 737.489 175.249C732.919 178.973 728.814 180.835 725.175 180.835H724.223C721.43 180.835 720.033 179.925 720.033 178.105C720.033 176.667 722.043 174.657 726.063 172.075C730.126 169.494 732.517 167.759 733.236 166.87C735.818 163.696 737.108 160.374 737.108 156.904C737.108 155.127 735.056 151.149 730.951 144.971C726.889 138.75 723.694 132.762 721.366 127.007C715.696 112.957 712.86 103.69 712.86 99.2041C712.86 96.4535 714.849 95.0781 718.827 95.0781Z" fill="white"/>
<path d="M62.5853 64.4443C68.7827 61.0376 77.4331 48.8302 80.9836 43.1523C83.3076 39.6399 81.3064 38.1401 80.0153 37.8292C66.4587 35.7 80.9836 16.5372 83.8886 10.1496C86.2126 5.03949 91.9581 3.76203 94.5403 3.76206C106.935 -3.05139 113.907 0.92312 115.844 3.76206C122.816 12.2789 129.723 14.4081 132.305 14.4081C142.376 15.2597 141.666 21.8603 140.052 25.0541C135.404 36.9776 129.723 42.0877 127.464 43.1523H118.263C109.062 49.5399 112.939 50.6045 111.97 50.6045C111.002 50.6045 111.002 83.6071 111.002 86.8009C111.002 89.356 107.774 93.5434 106.16 95.3177L112.939 145.354H119.717C127.464 150.464 122.945 154.581 119.717 156H81.952C82.7266 151.742 80.3381 149.258 79.047 148.548C83.695 135.773 82.9203 120.513 81.952 114.481C88.924 105.964 86.7936 96.7372 84.857 93.1885L85.8253 78.2841L76.142 87.8655C71.494 87.0139 66.4587 87.5107 64.522 87.8655L53.8704 80.4133L54.8387 93.1885C52.5147 100.002 52.5793 104.544 52.902 105.964C52.902 110.222 56.7754 114.126 58.712 115.545C42.444 124.914 40.3137 146.419 41.2821 156H21.9154C0.224806 146.632 -1.32452 127.966 0.612139 119.804C5.26013 113.842 9.00434 117.319 10.2955 119.804C11.8448 141.096 19.9788 143.58 23.8521 142.16C17.0738 84.6717 54.8387 68.7027 62.5853 64.4443Z" fill="white"/>
<path d="M74 97H78V101H74V97Z" fill="#FBFBFB"/>
<path d="M62 97H66V101H62V97Z" fill="#FBFBFB"/>
</svg>
