<svg width="169" height="169" viewBox="0 0 169 169" fill="none" xmlns="http://www.w3.org/2000/svg">
<circle cx="84.5" cy="84.5" r="84.5" fill="#FF5722" fill-opacity="0.17"/>
<g clip-path="url(#clip0_123_781)">
<path d="M42.5 54.25L72.25 41.5L97.75 54.25L124.538 42.7708C124.861 42.6321 125.214 42.576 125.564 42.6073C125.915 42.6386 126.252 42.7565 126.546 42.9503C126.839 43.1441 127.08 43.4078 127.247 43.7176C127.413 44.0275 127.5 44.3739 127.5 44.7258V113.75L97.75 126.5L72.25 113.75L45.4623 125.229C45.1389 125.368 44.7862 125.424 44.4357 125.393C44.0853 125.361 43.7481 125.243 43.4545 125.05C43.1609 124.856 42.9199 124.592 42.7533 124.282C42.5867 123.972 42.4997 123.626 42.5 123.274V54.25ZM102 115.429L119 108.144V54.3903L102 61.6748V115.429ZM93.5 114.872V61.628L76.5 53.128V106.372L93.5 114.872ZM68 106.325V52.5712L51 59.8557V113.61L68 106.325Z" fill="#FF5722"/>
</g>
<defs>
<clipPath id="clip0_123_781">
<rect width="102" height="102" fill="white" transform="translate(34 33)"/>
</clipPath>
</defs>
</svg>
